<?xml version="1.0" encoding="utf-8"?>
<!-- Generator: Adobe Illustrator 21.0.0, SVG Export Plug-In . SVG Version: 6.00 Build 0)  -->
<svg version="1.1" id="Layer_1" xmlns="http://www.w3.org/2000/svg" xmlns:xlink="http://www.w3.org/1999/xlink" x="0px" y="0px"
	 viewBox="0 0 556 141" style="enable-background:new 0 0 556 141;" xml:space="preserve" fill="white">
<style type="text/css">
	.st0{fill:#F8991D;}
</style>
<g>
	<g>
		<path d="M144.7,43.6h14.2v49.8h-14.2V43.6z M180.2,68.5l24.9,24.9h-21.3l-24.9-24.9l24.9-24.9h21.3L180.2,68.5z"/>
		<path d="M240.7,79.1V64.9l-28.4,28.4h-21.3l49.8-49.8h14.2v49.8H230V79.1H240.7z"/>
		<path d="M262,43.6h33.8c4.4,0,8.2,1.6,11.3,4.7c3.1,3.1,4.7,6.9,4.7,11.3s-1.6,8.2-4.7,11.3c-3.1,3.1-6.9,4.7-11.3,4.7h-19.5v17.8
			H262V43.6z M276.2,57.8v3.6h19.5c0.5,0,0.9-0.2,1.3-0.5c0.3-0.3,0.5-0.8,0.5-1.3s-0.2-0.9-0.5-1.3c-0.3-0.3-0.8-0.5-1.3-0.5H276.2
			z"/>
		<path d="M350.8,57.8v35.5h-14.2V57.8h-17.8V43.6h49.8v14.2H350.8z"/>
		<path d="M375.7,43.6h33.8c4.4,0,8.2,1.6,11.3,4.7c3.1,3.1,4.7,6.9,4.7,11.3s-1.6,8.2-4.7,11.3c-3.1,3.1-6.9,4.7-11.3,4.7h-19.5
			v17.8h-14.2V43.6z M389.9,57.8v3.6h19.5c0.5,0,0.9-0.2,1.3-0.5c0.3-0.3,0.5-0.8,0.5-1.3s-0.2-0.9-0.5-1.3
			c-0.3-0.3-0.8-0.5-1.3-0.5H389.9z"/>
		<path d="M457.4,79.1V64.9L429,93.3h-21.3l49.8-49.8h14.2v49.8h-24.9V79.1H457.4z"/>
		<path d="M478.7,43.6H493v49.8h-14.2V43.6z M514.3,68.5l24.9,24.9h-21.3L493,68.5l24.9-24.9h21.3L514.3,68.5z"/>
	</g>
	<g>
		<path d="M100.4,50.9c-0.4,0.9-0.7,1.8-1.1,2.8c-0.2,0.5-0.9,1-0.7,1.6c0.2,0.7,0.8,1.4,1.2,2.1c0.2,0.3,0.4,0.2,0.7,0.2
			c1.1,0.1,2.2,0.3,3.2,0.3c0.8,0,1.1,0.5,1.3,1.1c0.6,1.7,0.9,3.4,1.5,5.1c0.5,1.6,0.1,2.5-1.2,3.2c-0.3,0.1-0.5,0.5-0.8,0.6
			c-1.6,0.6-1.8,1.8-1.7,3.3c0,0.5,0.3,0.7,0.6,0.9c1.1,0.7,2.1,1.5,3.1,2.3c0.3,0.3,0.4,0.5,0.3,0.8c-0.7,2.2-0.9,4.4-1.8,6.5
			c-0.3,0.7-0.6,1.2-1.5,1.2c-1,0-2.1,0.2-3.1,0.2c-0.5,0-0.7,0.3-0.9,0.6c-1,1.3-1.1,2.5-0.1,3.8c0.5,0.6,0.5,1.5,0.9,2.1
			c0.2,0.3,0,0.5-0.2,0.7c-1.5,2-3.3,3.7-5.3,5.3c-0.4,0.3-0.7,0.2-1,0c-1-0.4-2-0.8-3-1.3c-0.7-0.4-1.2-0.1-1.7,0.2
			c-1,0.5-1.6,1.1-1.5,2.3c0,0.9-0.2,1.8-0.3,2.6c-0.1,0.5-0.3,0.8-0.8,1c-2.2,0.8-4.5,1.4-6.8,1.8c-0.5,0.1-0.8-0.1-1.1-0.5
			c-0.7-0.9-1.4-1.8-2-2.8c-0.3-0.4-0.6-0.5-1.1-0.6c-1.5-0.2-2.4,0.4-3.2,1.6c-2,3-1.2,2.4-4.4,1.8c-1.6-0.3-3.1-0.9-4.7-1.4
			c-0.5-0.2-0.7-0.5-0.8-1c-0.1-1.1-0.2-2.2-0.3-3.3c0-0.6-0.2-0.9-0.7-1.2c-1.1-0.8-2.2-1.1-3.4-0.2c-0.5,0.4-1.2,0.5-1.8,0.8
			c-0.7,0.4-1.2,0.3-1.8-0.2c-1.7-1.5-3.2-3-4.6-4.7c-0.4-0.4-0.5-0.8-0.2-1.3c0.5-1,0.9-2,1.4-3c0.2-0.5,0.2-0.8,0-1.3
			c-0.6-1.4-1.6-1.9-3.1-2c-3.2-0.2-2.7,0.2-3.6-2.8c-0.5-1.6-0.9-3.2-1.2-4.8c-0.1-0.5-0.1-0.9,0.4-1.2c1-0.7,1.9-1.4,2.8-2.1
			c0.5-0.3,0.6-0.7,0.6-1.3c0.2-1.4-0.3-2.3-1.6-2.9c-0.7-0.4-1.3-1-2-1.5C43,66.3,43,66,43.1,65.6c0.4-2.3,1.1-4.5,1.8-6.6
			c0.2-0.6,0.5-1,1.2-1c1.1-0.1,2.1-0.3,3.2-0.3c0.6,0,1-0.2,1.2-0.8c0.1-0.2,0.2-0.5,0.4-0.7c0.5-0.7,0.5-1.3,0.1-2.1
			c-0.5-0.9-0.9-1.9-1.3-2.9c-0.1-0.3-0.2-0.5,0.1-0.8c1.6-1.9,3.2-3.6,5.1-5.2c0.4-0.3,0.8-0.4,1.3-0.2c1.1,0.4,2.1,0.8,3.1,1.4
			c0.4,0.2,0.7,0.2,1.1,0c0.5-0.3,0.9-0.6,1.4-0.8c0.4-0.2,0.5-0.5,0.5-0.9c0-1.1,0.2-2.1,0.3-3.2c0.1-0.7,0.3-1,1-1.3
			c2.1-0.9,4.4-1.3,6.6-1.8c0.4-0.1,0.7,0.1,1,0.4c0.8,0.8,1.4,1.8,2,2.8c0.3,0.5,0.7,0.8,1.3,0.7c0.3,0,0.6,0,0.9,0
			c0.7,0.1,1.2-0.2,1.5-0.8c0.5-1,1.3-1.8,1.9-2.6c0.3-0.3,0.6-0.5,1-0.4C82,39,84,39.4,86,40.1c0.9,0.3,1.4,0.8,1.5,1.7
			c0,0.9,0.2,1.9,0.2,2.8c0,0.5,0.2,0.7,0.6,1c1.2,0.9,2.3,1.2,3.6,0.2c0.3-0.3,0.8-0.3,1.2-0.5c1.1-0.8,2-0.3,2.8,0.5
			c1.5,1.4,3.1,2.9,4.3,4.5C100.3,50.6,100.5,50.7,100.4,50.9z M75,85.2c8.3,0.1,14.9-6.7,14.8-14.8c-0.1-8.2-6.5-14.8-14.8-14.8
			c-8.2,0-14.8,6.4-14.8,14.8C60.2,78.8,66.9,85.3,75,85.2z"/>
		<path d="M68.2,70.4c0-3.7,3-6.8,6.7-6.8c3.7,0,6.8,3.1,6.9,6.7c0,3.7-3.1,6.8-6.8,6.8C71.3,77.2,68.3,74.2,68.2,70.4z M75,74.9
			c2.4,0,4.5-2,4.5-4.4c0-2.4-2-4.4-4.4-4.4c-2.5,0-4.5,2-4.5,4.4C70.5,72.8,72.6,74.9,75,74.9z"/>
		<path d="M66.2,70.4c0,1-0.9,1.9-1.9,1.9c-1,0-2.1-1-2-2c0-0.9,1.1-2,2-2C65.2,68.4,66.2,69.5,66.2,70.4z M63,70.4
			c0,0.6,0.5,1.1,1,1.1c0.7,0,1.4-0.7,1.4-1.5c0-0.7-0.5-0.9-1.1-0.9C63.6,69.1,63,69.9,63,70.4z"/>
		<path d="M82.5,79.9c-1,0-2-0.9-2-1.9c0-0.8,1.1-2,1.9-2c0.9,0,2,0.9,2,1.9C84.5,78.9,83.6,79.9,82.5,79.9z M83.6,77.7
			c0-0.6-0.4-1-1.1-0.9c-0.7,0-1.3,0.6-1.3,1.3c0.1,0.6,0.3,1.1,1,1.1C82.9,79.1,83.6,78.4,83.6,77.7z"/>
		<path d="M65.5,77.9c0-0.9,1.1-1.9,2-1.8c1,0.1,1.9,1.1,1.9,2c-0.1,1.1-1,1.9-2.1,1.8C66.3,79.8,65.4,78.9,65.5,77.9z M66.2,78
			c0,0.6,0.4,1.1,1,1.1c0.7,0,1.4-0.8,1.3-1.5c0-0.7-0.5-0.8-1.1-0.8C66.7,76.7,66.2,77.3,66.2,78z"/>
		<path d="M75,61.7c-0.9,0-1.9-1-1.9-2c0-0.9,1-1.9,1.9-1.9c1,0,2,0.9,2,1.9C77,60.7,76,61.7,75,61.7z M76,59.1
			c0-0.4-0.5-0.6-1.1-0.6c-0.7,0-1.3,0.6-1.2,1.3c0,0.6,0.3,1.1,0.9,1.2C75.3,61,76,60.2,76,59.1z"/>
		<path d="M75,83.1c-0.9,0-1.9-1-2-1.9c0-0.9,1-2,1.9-2c0.9,0,2,1,2,2C77,82.1,76,83,75,83.1z M75,79.8c-0.7,0-1.3,0.6-1.3,1.3
			c0,0.6,0.5,1.2,1,1.2c0.6,0,1.3-0.8,1.3-1.5C76,80.1,75.5,79.9,75,79.8z"/>
		<path d="M85.7,72.4c-0.9,0-2-1-2-1.9c0-0.9,1-2,2-2.1c0.9,0,2,1.1,2,2C87.6,71.4,86.6,72.3,85.7,72.4z M84.4,70.4
			c0,0.6,0.5,1.2,1,1.2c0.6,0,1.3-0.7,1.3-1.3c0-0.6-0.4-1.1-1-1.1C85.1,69.1,84.4,69.8,84.4,70.4z"/>
		<path d="M82.5,64.8c-0.9,0-2-1-2-1.9c0-0.9,1.1-2,2-2c0.9,0,1.9,1.1,1.9,2C84.5,63.9,83.5,64.8,82.5,64.8z M83.6,62.3
			c0-0.4-0.5-0.7-1.1-0.7c-0.6,0-1.3,0.7-1.3,1.3c0,0.6,0.3,1.1,1,1.1C82.9,64.1,83.6,63.3,83.6,62.3z"/>
		<path d="M65.5,62.9c0-1,1-2,2-2c0.9,0,1.9,1.1,1.9,2c0,1-1,1.9-2,1.9C66.4,64.8,65.5,63.9,65.5,62.9z M66.2,63
			c0,0.5,0.3,0.9,0.9,1c0.7,0.1,1.5-0.8,1.4-1.6c0-0.7-0.6-0.8-1.1-0.8C66.8,61.5,66.2,62.2,66.2,63z"/>
		<path d="M71.8,70.4c0-1.7,1.5-3.2,3.1-3.2c1.6,0,3.2,1.6,3.3,3.2c0,1.6-1.6,3.3-3.3,3.3C73.1,73.5,71.8,72.1,71.8,70.4z M74.9,73
			c1.6,0,2.8-1.1,2.9-2.6c0-1.5-1.2-2.8-2.7-2.8c-1.5,0-2.7,1.2-2.8,2.7C72.3,71.8,73.5,73,74.9,73z"/>
	</g>
	<path d="M132.8,63.4c-0.1-1.3-0.9-2.3-2.2-2.7c-1.7-0.5-3.5-0.9-5.2-1.3c-1-0.2-2-0.5-3-0.7c-2-0.5-4.2-1.1-5.9-2.3
		c-1.8-1.2-2.5-2.7-2.2-4.7c0.2-1.9,1.1-3.6,2-5.1c0.7-1.3,1.5-2.5,2.2-3.7c0.9-1.5,1.8-3,2.7-4.5c0.1-0.2,0.2-0.5,0.3-0.8
		c0.3-0.7,0.3-1.4-0.1-2.1c-0.1-0.3-0.3-0.6-0.5-0.9c-3-3.8-6.5-7.2-10.1-10c-0.9-0.7-1.8-0.7-2.4-0.5c-0.3,0.1-0.6,0.2-0.9,0.3
		c-1.7,0.9-3.3,1.9-4.8,2.8l-1,0.6c-1.9,1.2-3.8,2.3-5.8,3.1l-1.5,0.4c-0.2,0-0.5,0.1-0.7,0.1l-0.6,0l-0.2,0
		c-1.7-0.1-3.1-1.1-4.1-2.9c-0.8-1.4-1.3-3-1.8-5c-0.3-1-0.5-2-0.7-3.1c-0.4-1.8-0.8-3.6-1.4-5.5c-0.4-1.3-1.3-2-2.6-2.1
		c-2.3-0.3-4.7-0.4-7-0.4c-2.4,0-4.9,0.1-7.4,0.4c-1.3,0.1-2.1,0.9-2.5,2.1c-0.6,1.8-1,3.7-1.4,5.5c-0.2,1-0.5,2-0.7,3
		c-0.6,2.2-1.1,4.1-2.2,5.7c-0.5,0.7-1,1.3-1.7,1.7c-0.2,0.2-0.5,0.3-0.7,0.3c-0.2,0.1-0.4,0.1-0.6,0.2c-0.1,0-0.2,0-0.3,0
		c-0.2,0-0.5,0.1-0.7,0.1l-0.2,0c-0.3,0-0.7-0.1-1.2-0.2l-0.2-0.1c-0.4-0.1-0.7-0.2-1.1-0.3c-1.5-0.6-2.9-1.4-4.3-2.2
		c-0.8-0.5-1.6-1-2.4-1.5c-1.6-1-3.3-2-5-3c-0.5-0.3-1.1-0.4-1.6-0.3c-0.6,0-1.1,0.2-1.6,0.6C35.4,27.6,32,31,29.1,34.7
		c-0.5,0.7-1,1.8-0.3,3.2c0.9,1.7,1.9,3.2,2.8,4.8l0.6,1c1.2,2,2.4,3.8,3.1,5.8c1.3,3.5,0.4,5.9-2.9,7.5c-1.2,0.6-2.6,1-3.6,1.3
		c-1.3,0.4-2.6,0.7-3.9,1c-1.8,0.4-3.6,0.8-5.4,1.4c-1.6,0.5-2.1,1.7-2.2,2.6c-0.5,4.7-0.5,9.5,0,14.2c0.1,1.3,0.9,2.3,2.2,2.7
		c1.7,0.5,3.5,0.9,5.2,1.3c1,0.2,2,0.5,3,0.7c2,0.5,4.2,1.1,5.9,2.3c1.8,1.2,2.5,2.7,2.2,4.7c-0.2,1.9-1.1,3.6-2,5.1
		c-0.7,1.3-1.5,2.5-2.2,3.7c-0.9,1.5-1.8,3-2.7,4.5c-0.1,0.2-0.2,0.5-0.3,0.7c-0.3,0.7-0.3,1.4,0.1,2.1c0.1,0.3,0.3,0.6,0.5,0.9
		c3.1,3.8,6.5,7.2,10.1,10c0.7,0.6,1.5,0.7,2.4,0.5c0.3-0.1,0.6-0.2,0.9-0.3c1.7-0.9,3.3-1.9,4.8-2.8l1.1-0.7c1.9-1.2,6.5-3.2,7-3.4
		c0.1,0,0.3-0.1,0.3-0.1c0.6-0.2,1.2-0.1,1.2-0.1l0.2,0c1.7,0.1,3.1,1.1,4.1,2.9c0.8,1.4,1.3,3,1.8,5c0.3,1,0.5,2,0.7,3.1
		c0.4,1.8,0.8,3.6,1.4,5.5c0.4,1.3,1.3,2,2.6,2.1c2.3,0.3,4.7,0.4,7,0.4c2.4,0,4.9-0.1,7.4-0.4c1.3-0.1,2.1-0.9,2.5-2.1
		c0.6-1.8,1-3.7,1.4-5.5c0.2-1,0.5-2,0.7-3c0.6-2.2,1.1-4.1,2.2-5.7c0.5-0.7,1-1.3,1.7-1.7c0.2-0.1,0.5-0.2,0.7-0.3
		c0.2-0.1,0.4-0.1,0.6-0.2c0.1,0,0.2,0,0.3,0c0.2,0,0.5-0.1,0.7-0.1l0.2,0c0.3,0,0.7,0.1,1.2,0.2l0.2,0.1c0.4,0.1,0.7,0.2,1.1,0.3
		c1.5,0.6,2.9,1.4,4.3,2.2c0.8,0.5,1.6,1,2.4,1.5c1.6,1,3.3,2,5,3c0.5,0.3,1.1,0.4,1.6,0.3c0.6,0,1.1-0.2,1.6-0.6
		c3.9-3.1,7.3-6.5,10.2-10.2c0.5-0.7,1-1.8,0.3-3.2c-0.9-1.7-1.9-3.2-2.8-4.8l-0.6-1c-1.2-2-2.4-3.8-3.1-5.8
		c-1.3-3.5-0.4-5.9,2.9-7.5c1.2-0.6,2.6-1,3.6-1.3c1.3-0.4,2.6-0.7,3.9-1c1.8-0.4,3.6-0.8,5.4-1.4c1.6-0.5,2.1-1.7,2.2-2.6
		C133.3,72.9,133.3,68.1,132.8,63.4z M130.9,63.6L130.9,63.6L130.9,63.6L130.9,63.6z M109.9,70.4c0,19.2-15.6,34.9-34.9,34.9
		S40.1,89.7,40.1,70.4c0-19.2,15.6-34.9,34.9-34.9S109.9,51.2,109.9,70.4z"/>
	<g>
		<path class="st0" d="M130.9,63.6c-0.1-0.6-0.3-0.9-0.9-1c-2.7-0.8-5.5-1.3-8.2-2c-2.3-0.6-4.6-1.2-6.5-2.6c-2.3-1.6-3.4-3.8-3-6.6
			c0.3-2.1,1.2-4,2.2-5.8c1.6-2.8,3.4-5.4,4.9-8.2c0.1-0.2,0.2-0.4,0.2-0.5c0.1-0.2,0.1-0.4,0-0.6c-0.1-0.2-0.1-0.3-0.3-0.5
			c-2.9-3.6-6.2-6.9-9.8-9.7c-0.3-0.2-0.5-0.2-0.7-0.2c-0.1,0-0.3,0.1-0.4,0.1c-1.9,1-3.8,2.2-5.6,3.3c-2,1.2-4,2.5-6.2,3.3
			c-0.1,0-0.2,0.1-0.2,0.1c-0.4,0.1-0.8,0.3-1.2,0.3c-0.1,0-0.3,0.1-0.4,0.1c-0.3,0.1-0.6,0.1-0.9,0.1c-0.2,0-0.4,0-0.6,0
			c-0.2,0-0.3,0-0.5,0c-2.4-0.2-4.3-1.5-5.7-3.9c-1-1.7-1.5-3.6-2-5.5c-0.7-2.8-1.3-5.7-2.1-8.4c-0.2-0.6-0.4-0.7-1-0.8
			c-2.3-0.3-4.7-0.4-7-0.4c-2.3,0-4.6,0.1-6.9,0.4c-0.5,0.1-0.7,0.2-0.9,0.7c-0.9,2.8-1.4,5.6-2.1,8.4c-0.6,2.2-1.2,4.4-2.5,6.3
			c-0.6,0.9-1.4,1.7-2.2,2.2c0,0-0.1,0-0.1,0c-0.3,0.2-0.7,0.4-1.1,0.5c-0.3,0.1-0.5,0.2-0.8,0.2c-0.1,0-0.3,0.1-0.4,0.1
			c-0.3,0-0.7,0.1-1,0.1c-0.1,0-0.2,0-0.3,0c-0.4,0-0.9-0.1-1.4-0.2c-0.1,0-0.3-0.1-0.4-0.1c-0.4-0.1-0.9-0.2-1.3-0.4
			c-1.6-0.6-3.1-1.4-4.6-2.3c-2.5-1.5-4.8-3.1-7.4-4.4c-0.2-0.1-0.4-0.2-0.6-0.1c-0.2,0-0.4,0.1-0.6,0.2c-3.7,2.9-7,6.2-9.9,9.9
			c-0.3,0.4-0.3,0.7-0.1,1.1c1,1.8,2,3.5,3.1,5.3c1.3,2.1,2.6,4.2,3.5,6.5c1.7,4.4,0.3,7.9-3.9,9.9c-1.3,0.6-2.6,1-3.9,1.4
			c-3.1,0.8-6.2,1.4-9.3,2.3c-0.5,0.2-0.8,0.4-0.9,1c-0.5,4.6-0.5,9.2,0,13.8c0.1,0.6,0.3,0.9,0.9,1c2.7,0.8,5.5,1.3,8.2,2
			c2.3,0.6,4.6,1.2,6.5,2.6c2.3,1.6,3.4,3.8,3,6.6c-0.3,2.1-1.2,4-2.2,5.8c-1.6,2.8-3.4,5.4-4.9,8.2c-0.1,0.2-0.2,0.4-0.2,0.5
			c-0.1,0.2-0.1,0.4,0,0.6c0.1,0.2,0.1,0.3,0.3,0.5c2.9,3.6,6.2,6.9,9.8,9.7c0.3,0.2,0.5,0.2,0.7,0.2c0.1,0,0.3-0.1,0.4-0.1
			c1.9-1,3.8-2.2,5.6-3.3c2-1.2,4-2.5,6.2-3.3c0.1,0,0.2-0.1,0.2-0.1c0.4-0.1,0.8-0.3,1.2-0.3c0.1,0,0.3-0.1,0.4-0.1
			c0.3-0.1,1.3-0.2,1.5-0.2c0.2,0,0.3,0,0.5,0c2.4,0.2,4.3,1.5,5.7,3.9c1,1.7,1.5,3.6,2,5.5c0.7,2.8,1.3,5.7,2.1,8.4
			c0.2,0.6,0.4,0.7,1,0.8c2.3,0.3,4.7,0.4,7,0.4c2.3,0,4.6-0.1,6.9-0.4c0.5-0.1,0.7-0.2,0.9-0.7c0.9-2.8,1.4-5.6,2.1-8.4
			c0.6-2.2,1.2-4.4,2.5-6.3c0.6-0.9,1.4-1.7,2.2-2.2c0,0,0.1,0,0.1,0c0.3-0.2,0.7-0.4,1.1-0.5c0.3-0.1,0.5-0.2,0.8-0.2
			c0.1,0,0.3-0.1,0.4-0.1c0.3,0,0.7-0.1,1-0.1c0.1,0,0.2,0,0.3,0c0.4,0,0.9,0.1,1.4,0.2c0.1,0,0.3,0.1,0.4,0.1
			c0.4,0.1,0.9,0.2,1.3,0.4c1.6,0.6,3.1,1.4,4.6,2.3c2.5,1.5,4.8,3.1,7.4,4.4c0.2,0.1,0.4,0.2,0.6,0.1c0.2,0,0.4-0.1,0.6-0.2
			c3.7-2.9,7-6.2,9.9-9.9c0.3-0.4,0.3-0.7,0.1-1.1c-1-1.8-2-3.5-3.1-5.3c-1.3-2.1-2.6-4.2-3.5-6.5c-1.7-4.4-0.3-7.9,3.9-9.9
			c1.3-0.6,2.6-1,3.9-1.4c3.1-0.8,6.2-1.4,9.3-2.3c0.5-0.2,0.8-0.4,0.9-1C131.4,72.8,131.4,68.2,130.9,63.6z M75,107.2
			c-20.3,0-36.8-16.5-36.8-36.8S54.7,33.6,75,33.6s36.8,16.5,36.8,36.8S95.3,107.2,75,107.2z"/>
	</g>
</g>
</svg>
