<svg width="26" height="26" viewBox="0 0 26 26" fill="none" xmlns="http://www.w3.org/2000/svg">
<path d="M24.4865 16.0554V6.72577L6.10746 3.40733V2.26037C6.10746 1.01401 5.0935 0 3.84714 0H1.5127V1.53159H3.84709C4.24893 1.53159 4.57587 1.85853 4.57587 2.26037V16.4023C4.57587 18.0349 5.90407 19.3631 7.53669 19.3631H8.14958V21.1085C7.83668 20.9713 7.49146 20.8947 7.12852 20.8947C5.72099 20.8947 4.57587 22.0398 4.57587 23.4473C4.57587 24.8549 5.72099 26 7.12852 26C8.44992 26 9.53991 24.9907 9.66835 23.7026H9.68117V19.3631H22.9549V21.1085C22.642 20.9713 22.2968 20.8947 21.9339 20.8947C20.5264 20.8947 19.3812 22.0398 19.3812 23.4473C19.3812 24.8549 20.5264 26 21.9339 26C23.2553 26 24.3453 24.9907 24.4737 23.7026H24.4865V17.8315H7.53669C6.74859 17.8315 6.10746 17.1904 6.10746 16.4023V15.8001L24.4865 16.0554ZM7.12852 24.4684C6.56551 24.4684 6.10746 24.0104 6.10746 23.4473C6.10746 22.8843 6.56551 22.4263 7.12852 22.4263C7.69153 22.4263 8.14958 22.8843 8.14958 23.4473C8.14958 24.0104 7.69153 24.4684 7.12852 24.4684ZM21.9339 24.4684C21.3709 24.4684 20.9128 24.0104 20.9128 23.4473C20.9128 22.8843 21.3709 22.4263 21.9339 22.4263C22.4969 22.4263 22.9549 22.8843 22.9549 23.4473C22.9549 24.0104 22.4969 24.4684 21.9339 24.4684ZM13.7654 14.3747L10.7022 14.3322V5.79329L13.7654 6.34634V14.3747ZM15.297 6.6229L18.1049 7.1299V14.435L15.297 14.396V6.6229ZM9.17064 14.3109L6.10746 14.2684V4.96368L9.17064 5.51673V14.3109ZM22.9549 14.5024L19.6365 14.4563V7.40641L22.9549 8.00556V14.5024Z" fill="white"/>
</svg>
