<svg width="22" height="22" viewBox="0 0 22 22" fill="none" xmlns="http://www.w3.org/2000/svg">
<path d="M21.8059 4.37109L15.1338 11.0003L21.8059 17.6294C21.9265 17.3773 21.9997 17.0987 21.9997 16.8011V5.19949C21.9997 4.90184 21.9265 4.62319 21.8059 4.37109Z" fill="white"/>
<path d="M20.0667 3.26562H1.93386C1.63622 3.26562 1.35757 3.3388 1.10547 3.45941L9.63318 11.9442C10.3872 12.6982 11.6133 12.6982 12.3674 11.9442L20.8951 3.45941C20.643 3.3388 20.3643 3.26562 20.0667 3.26562Z" fill="white"/>
<path d="M0.193789 4.37085C0.0731758 4.62295 0 4.9016 0 5.19924V16.8008C0 17.0985 0.0731758 17.3771 0.193789 17.6292L6.86593 11L0.193789 4.37085Z" fill="white"/>
<path d="M14.2229 11.9111L13.2788 12.8553C12.0224 14.1116 9.97809 14.1116 8.72172 12.8553L7.77761 11.9111L1.10547 18.5403C1.35757 18.6609 1.63622 18.7341 1.93386 18.7341H20.0667C20.3643 18.7341 20.643 18.6609 20.8951 18.5403L14.2229 11.9111Z" fill="white"/>
</svg>
