<svg width="21" height="21" viewBox="0 0 21 21" fill="none" xmlns="http://www.w3.org/2000/svg">
<path fill-rule="evenodd" clip-rule="evenodd" d="M12.0321 1.75C12.5154 1.75 12.9071 2.14175 12.9071 2.625V6.125C12.9071 6.60825 12.5154 7 12.0321 7C11.5489 7 11.1571 6.60825 11.1571 6.125V5.25H2.4071C1.92386 5.25 1.5321 4.85825 1.5321 4.375C1.5321 3.89175 1.92386 3.5 2.4071 3.5H11.1571V2.625C11.1571 2.14175 11.5489 1.75 12.0321 1.75ZM14.6571 4.375C14.6571 3.89175 15.0489 3.5 15.5321 3.5H18.1571C18.6404 3.5 19.0321 3.89175 19.0321 4.375C19.0321 4.85825 18.6404 5.25 18.1571 5.25H15.5321C15.0489 5.25 14.6571 4.85825 14.6571 4.375ZM9.40711 7.875C9.89036 7.875 10.2821 8.26675 10.2821 8.75V9.625H19.0321C19.5154 9.625 19.9071 10.0168 19.9071 10.5C19.9071 10.9832 19.5154 11.375 19.0321 11.375H10.2821V12.25C10.2821 12.7332 9.89036 13.125 9.40711 13.125C8.92386 13.125 8.53211 12.7332 8.53211 12.25V8.75C8.53211 8.26675 8.92386 7.875 9.40711 7.875ZM1.5321 10.5C1.5321 10.0168 1.92386 9.625 2.4071 9.625H5.9071C6.39035 9.625 6.78211 10.0168 6.78211 10.5C6.78211 10.9832 6.39035 11.375 5.9071 11.375H2.4071C1.92386 11.375 1.5321 10.9832 1.5321 10.5ZM12.0321 14C12.5154 14 12.9071 14.3918 12.9071 14.875V18.375C12.9071 18.8582 12.5154 19.25 12.0321 19.25C11.5489 19.25 11.1571 18.8582 11.1571 18.375V17.5H2.4071C1.92386 17.5 1.5321 17.1082 1.5321 16.625C1.5321 16.1418 1.92386 15.75 2.4071 15.75H11.1571V14.875C11.1571 14.3918 11.5489 14 12.0321 14ZM14.6571 16.625C14.6571 16.1418 15.0489 15.75 15.5321 15.75H18.1571C18.6404 15.75 19.0321 16.1418 19.0321 16.625C19.0321 17.1082 18.6404 17.5 18.1571 17.5H15.5321C15.0489 17.5 14.6571 17.1082 14.6571 16.625Z" fill="#F8991D"/>
</svg>
